<?xml version="1.0" standalone="no"?>
<!DOCTYPE svg PUBLIC "-//W3C//DTD SVG 20010904//EN"
 "http://www.w3.org/TR/2001/REC-SVG-20010904/DTD/svg10.dtd">
<svg version="1.0" xmlns="http://www.w3.org/2000/svg"
 width="492.000000pt" height="406.000000pt" viewBox="0 0 492.000000 406.000000"
 preserveAspectRatio="xMidYMid meet">

<g transform="translate(0.000000,406.000000) scale(0.100000,-0.100000)"
fill="#FFFFFF" stroke="none">
<path d="M2280 4040 c-53 -4 -158 -23 -236 -43 -395 -100 -722 -281 -1008
-557 -115 -111 -281 -309 -269 -321 5 -3 183 -59 396 -125 l389 -118 131 32
c287 69 488 93 782 93 288 0 491 -24 786 -92 l135 -32 265 82 c145 45 324 101
398 124 l134 43 -81 100 c-97 120 -299 318 -404 397 -246 183 -529 311 -823
372 -193 40 -427 57 -595 45z"/>
<path d="M37 3243 c-4 -76 -11 -237 -18 -357 -27 -543 58 -1179 203 -1521 178
-418 514 -679 903 -702 207 -13 478 68 685 205 41 27 167 120 280 207 238 183
269 199 395 193 104 -4 181 -40 290 -135 275 -238 551 -395 787 -447 131 -29
317 -26 453 9 93 23 251 107 342 180 204 164 357 422 454 765 67 239 87 426
96 909 5 292 -10 799 -24 824 -3 5 -36 -23 -74 -62 -81 -82 -203 -165 -309
-210 -41 -17 -349 -119 -685 -227 -335 -108 -718 -236 -850 -285 -290 -106
-346 -120 -490 -120 -147 0 -204 14 -526 131 -148 54 -543 187 -877 296 -722
234 -779 259 -946 415 -41 38 -76 69 -78 69 -3 0 -8 -62 -11 -137z m4500 -630
c12 -31 -16 -415 -41 -564 -40 -233 -105 -468 -162 -581 -96 -192 -274 -378
-426 -447 -137 -61 -253 -83 -383 -70 -357 33 -660 342 -730 745 -24 135 -21
171 20 240 81 136 186 195 601 335 355 121 1084 357 1102 358 7 1 16 -7 19
-16z m-3823 -84 c445 -138 1022 -327 1111 -364 340 -140 410 -294 285 -633
-85 -229 -251 -412 -478 -526 -120 -60 -324 -78 -462 -42 -76 21 -185 74 -251
122 -108 79 -246 247 -314 384 -91 181 -175 558 -190 850 -3 63 -8 157 -11
208 -4 66 -2 92 6 92 7 0 143 -41 304 -91z"/>
<path d="M2411 1143 c-35 -7 -126 -68 -221 -149 -121 -104 -268 -213 -363
-270 -150 -89 -350 -159 -529 -185 l-80 -12 52 -46 c258 -228 556 -378 860
-432 165 -30 430 -37 580 -15 360 52 662 197 968 465 l33 29 -83 12 c-135 19
-280 70 -453 157 -142 72 -253 151 -527 375 -32 26 -75 51 -95 57 -53 13 -114
19 -142 14z"/>
</g>
</svg>
