<?xml version="1.0" standalone="no"?>
<!DOCTYPE svg PUBLIC "-//W3C//DTD SVG 20010904//EN"
 "http://www.w3.org/TR/2001/REC-SVG-20010904/DTD/svg10.dtd">
<svg version="1.0" xmlns="http://www.w3.org/2000/svg"
 width="656.000000pt" height="656.000000pt" viewBox="0 0 656.000000 656.000000"
 preserveAspectRatio="xMidYMid meet">
<metadata>
Created by potrace 1.14, written by Peter Selinger 2001-2017
</metadata>
<g transform="translate(0.000000,656.000000) scale(0.100000,-0.100000)"
fill="#000000" stroke="none">
<path d="M3030 5953 c-34 -4 -223 -37 -265 -47 -73 -17 -181 -49 -197 -57 -10
-5 -18 -8 -18 -5 0 2 -37 -9 -82 -25 -46 -17 -106 -38 -134 -48 -175 -64 -423
-200 -634 -349 -22 -15 -138 -107 -199 -157 -32 -27 -238 -231 -282 -280 -58
-65 -178 -215 -189 -236 -9 -16 -7 -21 13 -28 35 -13 349 -114 364 -117 7 -1
36 -10 65 -19 56 -17 67 -21 83 -25 6 -2 33 -11 60 -20 28 -9 55 -18 60 -19 6
-1 48 -14 95 -28 47 -15 90 -28 95 -29 6 -2 55 -16 109 -32 l99 -28 96 23
c175 44 388 87 480 98 30 4 63 9 75 11 24 5 67 10 181 20 172 15 755 8 875
-11 14 -2 48 -6 75 -10 97 -12 274 -43 375 -67 25 -5 59 -12 75 -15 17 -3 37
-9 46 -14 9 -4 18 -6 21 -4 3 3 27 -2 55 -10 76 -23 89 -22 214 18 64 20 125
38 135 40 10 2 28 7 39 11 36 14 68 24 220 71 83 25 227 70 320 100 94 29 180
56 193 60 22 6 30 30 13 37 -5 2 -41 44 -82 93 -89 109 -68 87 -220 242 -70
70 -155 153 -189 183 -34 30 -68 60 -74 65 -46 42 -192 145 -205 145 -5 0 -11
4 -13 9 -4 11 -171 111 -185 111 -6 0 -13 3 -15 8 -4 9 -129 72 -145 72 -6 0
-13 4 -15 8 -8 19 -381 152 -498 176 -80 17 -176 36 -213 42 -67 10 -79 12
-132 18 -27 4 -70 9 -95 12 -53 6 -399 12 -450 7z"/>
<path d="M59 5053 c0 -10 -2 -36 -4 -58 -2 -22 -6 -98 -9 -170 -3 -71 -8 -173
-11 -225 -13 -231 -14 -276 -14 -460 1 -253 4 -331 24 -570 8 -87 25 -243 31
-275 3 -18 7 -42 20 -135 2 -20 7 -47 9 -60 3 -14 8 -41 11 -60 3 -19 7 -42 9
-50 2 -8 7 -31 10 -50 3 -19 11 -53 17 -75 5 -22 12 -51 15 -65 7 -34 8 -38
22 -90 7 -25 15 -52 16 -60 8 -33 54 -169 81 -235 128 -321 370 -620 625 -774
80 -49 256 -128 304 -137 6 -1 28 -7 51 -13 86 -23 153 -33 259 -36 95 -3 146
1 265 20 82 12 260 66 345 104 134 60 317 164 365 208 8 8 67 52 130 98 63 47
121 90 129 96 7 7 50 39 95 72 44 33 83 63 86 66 12 15 149 99 190 116 35 16
66 20 145 20 107 0 136 -5 202 -29 43 -15 130 -68 170 -102 12 -11 41 -35 64
-54 23 -19 50 -42 59 -50 74 -63 316 -240 360 -262 13 -7 47 -28 75 -46 27
-18 59 -35 70 -38 11 -4 22 -10 25 -13 6 -9 145 -75 214 -103 102 -41 220 -74
291 -84 17 -2 50 -6 75 -10 53 -7 209 -7 289 1 184 18 329 71 521 189 127 78
265 205 358 331 29 39 56 75 60 80 20 26 72 116 72 124 0 5 4 11 8 13 13 5
108 208 151 323 39 106 77 223 87 274 3 14 7 28 10 33 3 5 7 21 10 36 5 33 12
67 14 67 1 0 3 9 5 20 4 29 15 87 20 105 2 8 7 42 10 75 4 33 9 71 10 85 34
286 47 902 31 1425 -10 328 -16 407 -32 412 -5 2 -39 -25 -75 -59 -93 -89
-127 -118 -138 -118 -5 0 -11 -4 -13 -9 -6 -16 -136 -98 -219 -139 -84 -42
-253 -100 -924 -317 -472 -153 -1012 -334 -1200 -402 -82 -30 -157 -56 -165
-58 -8 -2 -39 -13 -67 -24 -29 -10 -53 -17 -53 -14 0 3 -7 0 -15 -7 -8 -7 -15
-9 -15 -5 0 4 -6 2 -13 -4 -8 -6 -17 -8 -20 -5 -3 3 -12 2 -19 -2 -14 -9 -20
-11 -88 -22 -57 -9 -301 -9 -360 0 -64 10 -198 46 -255 69 -11 4 -47 17 -80
28 -33 11 -105 36 -160 56 -55 20 -120 43 -145 51 -25 8 -54 19 -65 24 -20 9
-741 250 -760 255 -5 1 -17 5 -25 8 -8 3 -100 34 -205 67 -215 70 -303 99
-325 107 -8 3 -19 7 -25 8 -21 6 -224 75 -330 113 -328 118 -406 164 -614 359
-61 57 -71 62 -72 36z m5987 -994 c8 -14 8 -149 0 -239 -3 -36 -8 -101 -11
-145 -9 -123 -18 -211 -32 -310 -3 -22 -7 -51 -9 -65 -6 -44 -15 -94 -24 -130
-5 -19 -12 -51 -15 -70 -3 -19 -17 -80 -31 -135 -14 -55 -28 -111 -30 -124 -3
-13 -10 -34 -16 -45 -6 -12 -11 -22 -10 -23 5 -8 -58 -186 -79 -223 -4 -8 -18
-35 -30 -60 -13 -25 -25 -47 -28 -50 -3 -3 -12 -16 -19 -30 -39 -77 -228 -291
-322 -366 -126 -100 -314 -182 -465 -202 -54 -7 -220 -7 -275 1 -139 19 -337
105 -454 195 -86 67 -226 210 -226 231 0 5 -4 11 -9 13 -29 10 -168 282 -192
373 -4 16 -14 55 -23 85 -17 63 -24 102 -32 180 -3 30 -7 60 -9 67 -9 27 28
130 70 193 75 113 185 191 383 271 12 5 32 13 45 19 27 12 158 61 172 65 6 1
17 5 25 8 23 10 792 267 814 272 10 2 37 11 60 19 22 8 169 56 326 106 157 50
310 100 340 110 65 22 96 24 106 9z m-5361 -38 c72 -22 182 -56 245 -76 63
-20 120 -37 125 -39 6 -1 37 -11 70 -21 33 -10 65 -19 70 -21 6 -1 129 -40
275 -87 581 -187 542 -175 551 -173 3 0 12 -4 20 -10 8 -6 28 -15 44 -19 35
-10 36 -10 55 -18 8 -3 56 -20 105 -36 283 -93 426 -168 531 -277 130 -134
147 -303 59 -569 -26 -76 -93 -224 -132 -290 -68 -113 -209 -265 -323 -348
-87 -63 -83 -60 -110 -76 -167 -96 -281 -125 -490 -125 -128 -1 -170 4 -251
28 -60 18 -253 112 -269 131 -7 8 -16 15 -21 15 -27 0 -257 234 -293 299 -5 9
-12 18 -15 21 -6 5 -56 79 -78 115 -29 48 -91 185 -108 235 -10 30 -21 60 -25
65 -4 6 -10 21 -12 35 -3 14 -17 68 -31 120 -21 81 -40 164 -72 325 -4 17 -8
47 -10 67 -2 21 -6 45 -9 55 -3 10 -7 41 -10 68 -20 173 -21 185 -31 415 -4
85 -8 162 -10 171 -4 21 5 59 14 59 4 0 65 -18 136 -39z"/>
<path d="M3197 2085 c-37 -13 -157 -90 -194 -124 -12 -12 -25 -21 -29 -21 -4
0 -14 -8 -23 -18 -9 -9 -65 -57 -126 -105 -60 -49 -117 -94 -125 -100 -29 -24
-185 -133 -235 -164 -106 -67 -335 -170 -445 -199 -209 -55 -211 -56 -315 -69
-75 -10 -78 -11 -58 -35 10 -11 23 -20 30 -20 7 0 13 -4 13 -9 0 -20 389 -311
415 -311 3 0 36 -17 73 -38 79 -44 252 -122 337 -150 17 -6 39 -13 50 -18 25
-9 20 -7 140 -39 97 -25 124 -30 210 -40 22 -3 50 -7 61 -9 33 -7 268 -18 359
-18 177 1 271 11 435 47 130 28 125 26 211 53 192 59 497 206 585 280 5 5 21
15 35 22 24 13 191 140 240 182 15 13 43 36 63 52 45 35 42 40 -34 50 -75 10
-117 19 -183 37 -39 11 -79 21 -87 24 -73 19 -233 87 -379 162 -89 46 -296
173 -311 192 -3 3 -32 26 -65 51 -33 25 -125 97 -205 161 -122 97 -245 183
-245 170 0 -1 -16 0 -36 4 -66 12 -126 12 -162 0z"/>
</g>
</svg>
